<?xml version="1.0" encoding="UTF-8"?>
<svg xmlns="http://www.w3.org/2000/svg" version="1.1" viewBox="0 0 621.7778 160">
  <!-- Generator: Adobe Illustrator 30.1.0, SVG Export Plug-In . SVG Version: 2.1.1 Build 136)  -->
  <defs>
    <style>
      .st0 {
        fill: #fff;
      }

      .st1 {
        display: none;
      }

      .st2 {
        fill: #6cca98;
      }

      .st3 {
        font-family: MetaOffc-Bold, 'Meta Offc';
        font-size: 92px;
        font-weight: 700;
        letter-spacing: .004em;
      }

      .st3, .st4 {
        fill: #003764;
      }
    </style>
  </defs>
  <g id="OWWL_Help_font" class="st1">
    <text class="st3" transform="translate(149.4106 127.0831)"><tspan x="0" y="0">OWWL Help</tspan></text>
  </g>
  <g id="OWWL_Help_outline">
    <g>
      <path class="st4" d="M208.7502,94.7914c0,7.2383-1.2109,13.4639-3.6328,18.6758-2.4238,5.2139-5.9668,9.1084-10.627,11.6846-1.9639,1.043-3.9102,1.7939-5.8418,2.2539s-4.248.6895-6.9463.6895c-4.8457,0-8.9092-.7051-12.1895-2.1152-3.2822-1.4111-6.1504-3.7109-8.6025-6.9004-4.9072-6.3164-7.3594-14.2285-7.3594-23.7363,0-6.9297,1.2559-13.002,3.7715-18.2158,2.5146-5.2124,6.0723-9.1089,10.6719-11.6846,1.9004-1.042,3.9863-1.8242,6.2559-2.3457,2.2686-.5205,4.6006-.7822,6.9922-.7822,4.2324,0,8.0498.752,11.4541,2.2539,3.4043,1.5039,6.3018,3.6655,8.6943,6.4858,2.3926,2.8223,4.2168,6.2271,5.4746,10.2124,1.2559,3.9883,1.8848,8.4961,1.8848,13.5244ZM193.9387,95.1596c0-3.3125-.1377-6.1641-.4141-8.5566-.2764-2.3916-.6904-4.4756-1.2422-6.2559-.2461-.7959-.6436-1.6699-1.1963-2.6221-.5518-.9502-1.2871-1.8242-2.208-2.6221-.9199-.7964-2.0234-1.4722-3.3115-2.0239s-2.792-.8281-4.5078-.8281c-2.1475,0-4.1104.5059-5.8887,1.5176-1.7793,1.0132-3.1279,2.3784-4.0479,4.0952-2.1475,4.0479-3.2197,9.875-3.2197,17.4795,0,11.1016,1.9004,18.002,5.7041,20.7002,2.0244,1.4717,4.5684,2.208,7.6357,2.208,4.4766,0,7.7119-1.8086,9.7061-5.4277,1.9922-3.6182,2.9902-9.5068,2.9902-17.6641Z"/>
      <path class="st4" d="M273.886,127.6352h-14.0762l-5.7041-26.0361c-.4297-1.9619-.8271-3.8779-1.1953-5.75-.3682-1.8701-.6758-3.6182-.9199-5.2432-.2461-1.625-.4463-3.0508-.5986-4.2783-.1533-1.2266-.2617-2.1465-.3213-2.7598-.0625.4297-.1846,1.2275-.3682,2.3916-.1846,1.166-.3994,2.5459-.6445,4.1396-.2451,1.5957-.5371,3.374-.874,5.3359-.3379,1.9639-.7217,3.9561-1.1494,5.9805l-5.3359,26.2197h-14.6279l-15.2725-64.4922h13.6162l5.5195,25.208c.6123,2.7607,1.1191,5.3525,1.5186,7.7744.3975,2.4238.7354,4.5537,1.0117,6.3936.2764,1.8408.4746,3.3584.5977,4.5547.1221,1.1953.2148,1.9473.2764,2.2539.0605-.6748.1836-1.7021.3682-3.082.1836-1.3799.4141-2.9902.6895-4.8301.2764-1.8398.5986-3.832.9668-5.9805.3672-2.1455.7959-4.292,1.2871-6.4395l5.7041-25.8525h14.0762l5.8887,28.6123c.3057,1.4121.6123,3.0361.9199,4.876.3057,1.8398.582,3.6035.8271,5.29.2451,1.6875.4609,3.1602.6445,4.416.1836,1.2578.3057,2.0098.3682,2.2539.0605-.5518.2139-1.6699.46-3.3574.2441-1.6865.5361-3.5889.874-5.7041.3359-2.1162.6895-4.2783,1.0576-6.4863s.7363-4.0781,1.1045-5.6123l5.2441-24.2881h13.5234l-15.4561,64.4922Z"/>
      <path class="st4" d="M351.718,127.6352h-14.0762l-5.7041-26.0361c-.4297-1.9619-.8271-3.8779-1.1953-5.75-.3682-1.8701-.6758-3.6182-.9199-5.2432-.2461-1.625-.4463-3.0508-.5986-4.2783-.1533-1.2266-.2617-2.1465-.3213-2.7598-.0625.4297-.1846,1.2275-.3682,2.3916-.1846,1.166-.3994,2.5459-.6445,4.1396-.2451,1.5957-.5371,3.374-.874,5.3359-.3379,1.9639-.7217,3.9561-1.1494,5.9805l-5.3359,26.2197h-14.6279l-15.2725-64.4922h13.6162l5.5195,25.208c.6123,2.7607,1.1191,5.3525,1.5186,7.7744.3975,2.4238.7354,4.5537,1.0117,6.3936.2764,1.8408.4746,3.3584.5977,4.5547.1221,1.1953.2148,1.9473.2764,2.2539.0605-.6748.1836-1.7021.3682-3.082.1836-1.3799.4141-2.9902.6895-4.8301.2764-1.8398.5986-3.832.9668-5.9805.3672-2.1455.7959-4.292,1.2871-6.4395l5.7041-25.8525h14.0762l5.8887,28.6123c.3057,1.4121.6123,3.0361.9199,4.876.3057,1.8398.582,3.6035.8271,5.29.2451,1.6875.4609,3.1602.6445,4.416.1836,1.2578.3057,2.0098.3682,2.2539.0605-.5518.2139-1.6699.46-3.3574.2441-1.6865.5361-3.5889.874-5.7041.3359-2.1162.6895-4.2783,1.0576-6.4863s.7363-4.0781,1.1045-5.6123l5.2441-24.2881h13.5234l-15.4561,64.4922Z"/>
      <path class="st4" d="M408.6653,127.0834h-33.7637v-63.9404h13.1553v53.2686h22.9082l-2.2998,10.6719Z"/>
      <path class="st4" d="M469.5686,127.0834v-28.5195h-18.3994v28.5195h-12.7881v-63.9404h12.7881v24.8408h18.3994v-24.8408h13.0645v63.9404h-13.0645Z"/>
      <path class="st4" d="M507.3811,107.395v.3682c0,3.6807.8574,6.502,2.5752,8.4639,1.7168,1.9639,4.1709,2.9443,7.3604,2.9443,4.1699,0,8.1562-1.5635,11.96-4.6914l4.7842,7.3594c-5.3359,4.3555-11.2559,6.5322-17.7559,6.5322-3.374,0-6.4404-.584-9.2002-1.748s-5.1064-2.8057-7.0381-4.9219-3.4199-4.6768-4.4619-7.6826c-1.0439-3.0039-1.5645-6.3477-1.5645-10.0273,0-4.2324.46-7.8203,1.3799-10.7646.9209-2.9434,2.4229-5.5801,4.5088-7.9111,1.9619-2.1465,4.1396-3.7412,6.5312-4.7842,2.3926-1.042,5.1523-1.5645,8.2803-1.5645,2.7598,0,5.3359.4297,7.7285,1.2881,2.3916.8594,4.3535,2.0859,5.8877,3.6797,2.1465,2.208,3.7256,4.9541,4.7383,8.2344,1.0117,3.2822,1.5176,7.4062,1.5176,12.374v2.8516h-27.2314ZM521.8244,97.8276c0-1.7783-.1074-3.1885-.3223-4.2324-.2148-1.042-.5977-1.9922-1.1494-2.8516-1.2275-1.8398-3.0361-2.7598-5.4277-2.7598-2.332,0-4.1406.874-5.4287,2.6221-1.2881,1.7471-1.9316,4.2773-1.9316,7.5898v.1836h14.2598v-.5518Z"/>
      <path class="st4" d="M564.051,126.8998c-2.208.8574-4.6611,1.2871-7.3594,1.2871-2.6377,0-4.9375-.583-6.9004-1.7471-1.9639-1.165-3.3115-2.7285-4.0479-4.6924-.2461-.6123-.4297-1.1963-.5518-1.748-.124-.5518-.2305-1.1963-.3223-1.9316-.0918-.7363-.1533-1.6562-.1836-2.7607-.0322-1.1035-.0459-2.4834-.0459-4.1396v-35.1436c0-3.1294-.0469-5.7349-.1387-7.8208-.0918-2.0845-.2617-4.2007-.5059-6.3481l12.6045-2.8521c.2441,1.2881.4141,2.8218.5059,4.6001.0918,1.7798.1377,4.3237.1377,7.6362v36.7085c0,2.0234.0146,3.6494.0459,4.876.0303,1.2275.0605,2.208.0918,2.9434.0303.7363.1064,1.2881.2305,1.6562.1221.3682.2764.7061.46,1.0117.4902.8604,1.3184,1.2881,2.4844,1.2881h.6436c.1836,0,.4287-.0596.7363-.1836l2.1152,7.3604Z"/>
      <path class="st4" d="M612.4426,102.2436c0,2.5156-.1084,4.7539-.3223,6.7158-.2158,1.9639-.584,3.7578-1.1045,5.3818-.5215,1.626-1.1953,3.1143-2.0234,4.4619-.8281,1.3496-1.8564,2.668-3.082,3.9561-1.5957,1.7178-3.4502,3.0361-5.5664,3.9561s-4.4619,1.3799-7.0381,1.3799c-1.8398,0-3.6035-.2158-5.29-.6436-1.6875-.4287-3.2051-1.042-4.5537-1.8398.1221.5518.1836,1.165.1836,1.8398v16.7441l-11.8672,3.1279v-54.4639c0-1.5332-.0166-2.8369-.0469-3.9102-.0312-1.0723-.0615-2.0244-.0918-2.8525-.0312-.8281-.0918-1.6396-.1836-2.4375-.0918-.7969-.2305-1.6865-.4141-2.668l10.9482-1.9326c.2441.8604.4277,1.626.5518,2.3008.1221.6748.2139,1.3799.2764,2.1152,1.042-1.2881,2.6357-2.3457,4.7832-3.1738,2.1465-.8281,4.416-1.2422,6.8086-1.2422,1.6562,0,3.2959.2617,4.9219.7822,1.624.5225,3.082,1.2119,4.3701,2.0703,1.2881.8594,2.4521,1.8857,3.4961,3.082,1.042,1.1963,1.9619,2.6221,2.7598,4.2783.7959,1.6553,1.4102,3.5576,1.8398,5.7031.4287,2.1484.6445,4.5703.6445,7.2686ZM599.01,103.4399c0-2.2686-.0918-4.2783-.2754-6.0264-.1846-1.748-.4922-3.2041-.9209-4.3701-.9199-2.6367-2.8828-3.9561-5.8877-3.9561-3.1895,0-5.9199,1.1963-8.1875,3.5879v22.9082c.8574.6758,1.9004,1.3037,3.1279,1.8857,1.2256.584,2.4521.874,3.6797.874,3.0664,0,5.2441-1.1338,6.5322-3.4033,1.2881-2.2686,1.9316-6.1025,1.9316-11.5Z"/>
    </g>
  </g>
  <g id="OWWL_Logo">
    <g>
      <path class="st2" d="M31.4819,127.9075c1.949-.7908,1.7749-2.4141,1.8156-3.6537.1795-5.4618-.5447-13.7447-1.4786-24.5951-.9908-11.5087-2.1136-24.5534-2.1136-32.4996,0-12.4722,1.8188-22.2245,5.4062-28.9859.133-.2484.2719-.4931.4165-.735-.3485-.111-.6888-.2341-1.0199-.3695-1.7695-.7242-3.5371-1.8831-5.254-3.4444l-.7814-.7104c-2.4371,3.1422-4.5908,6.6406-6.4465,10.488-5.0659,10.4995-7.6345,22.9373-7.6345,36.9684,0,18.1654,4.4797,33.6133,13.3084,45.9724,0,0,1.7434,2.3917,3.7817,1.5648Z"/>
      <path class="st0" d="M44.6066,70.5646c1.755.7267,3.9293,1.0904,6.522,1.0904,1.4434,0,2.6825-.1185,3.7161-.3556,1.0337-.237,2.0751-.6238,3.1256-1.1615,2.4935-1.3275,4.3885-3.3342,5.6851-6.021,1.2961-2.6861,1.9443-5.8943,1.9443-9.624,0-2.5913-.3369-4.9145-1.009-6.9693-.673-2.0541-1.649-3.8082-2.9287-5.2624-1.2798-1.4534-2.8303-2.5676-4.6515-3.3424-1.8213-.7741-3.8639-1.1615-6.1282-1.1615-1.2796,0-2.5272.1348-3.7408.4029-1.2143.269-2.3303.6719-3.347,1.2091-2.4612,1.3274-4.3647,3.3349-5.7098,6.0209-1.3459,2.6868-2.0181,5.8158-2.0181,9.387,0,4.8995,1.3119,8.9768,3.9376,12.2318,1.3121,1.6436,2.8465,2.8289,4.6023,3.5556ZM47.7277,52.3922c.3314-.687.8003-1.2005,1.4066-1.54.2504-.1374.5254-.2405.8246-.3092.2989-.0685.6063-.1031.9216-.1031.5578,0,1.061.0991,1.5097.2971.4487.1982.8306.4831,1.146.8549.3152.3719.5557.8207.7215,1.346.1655.5256.2485,1.1198.2485,1.7826,0,.954-.1597,1.7745-.4789,2.4616-.3195.6872-.7863,1.2004-1.4006,1.54-.2587.1375-.5153.2365-.77.297-.2546.0606-.5598.091-.9155.091-.6387,0-1.1744-.0931-1.6067-.2789-.4325-.1859-.8105-.4891-1.1338-.9095-.6468-.8326-.97-1.8754-.97-3.1285,0-.9135.1656-1.7138.4972-2.401Z"/>
      <path class="st2" d="M108.9833,56.5448l.0333.4958c.6546,9.3842.3343,18.6338-.953,27.4915-2.5062,17.2474-8.4111,30.9614-17.551,40.7616-8.5401,9.1568-19.7753,14.6751-33.4918,16.4713-3.4594.3495-5.7386.5081-7.2979.5815l.001.0002s-.68.0201-.722.3977c-.0226.2043.0864.4269.5675.6246,5.9353,1.982,13.0548,2.9887,21.2323,2.9887,5.4201,0,10.1139-.4633,13.9511-1.3765,3.8225-.9099,7.7387-2.4224,11.6397-4.4948,9.209-5.0909,16.3385-12.939,21.1596-23.31,4.884-10.5091,7.3606-23.2788,7.3606-37.9547,0-10.1893-1.2867-19.4402-3.8251-27.4952-2.2974-7.2817-5.5835-13.6488-9.7587-18.9802l-.9654.878c-1.7172,1.5614-3.4849,2.7202-5.2537,3.4444-.3058.1249-.6192.2394-.9395.3434.086.1332.1726.2693.2591.4082,3.8058,6.1083,4.3111,14.6296,4.554,18.7245Z"/>
      <path class="st0" d="M95.8168,39.3693c-1.0166-.5371-2.1327-.9401-3.347-1.2091-1.2136-.2681-2.4611-.4029-3.7408-.4029-2.2643,0-4.3069.3874-6.1282,1.1615-1.8213.7748-3.3717,1.889-4.6516,3.3424-1.2797,1.4542-2.2556,3.2083-2.9286,5.2624-.6722,2.0549-1.009,4.378-1.009,6.9693,0,3.7297.6482,6.938,1.9443,9.624,1.2965,2.6868,3.1916,4.6935,5.685,6.021,1.0506.5376,2.0919.9244,3.1256,1.1615,1.0336.237,2.2727.3556,3.7162.3556,2.5926,0,4.7669-.3637,6.522-1.0904,1.7557-.7267,3.2902-1.912,4.6023-3.5556,2.6257-3.255,3.9376-7.3323,3.9376-12.2318,0-3.5712-.6722-6.7002-2.0181-9.387-1.3452-2.686-3.2487-4.6935-5.7098-6.0209ZM91.9025,57.182c-.3195.6872-.7863,1.2004-1.4005,1.54-.2588.1375-.5153.2365-.77.297-.2547.0606-.5599.091-.9155.091-.6388,0-1.1744-.0931-1.6067-.2789-.4326-.1859-.8106-.4891-1.1338-.9095-.6468-.8326-.9701-1.8754-.9701-3.1285,0-.9134.1657-1.7138.4972-2.401.3314-.687.8004-1.2005,1.4066-1.54.2505-.1374.5254-.2405.8246-.3092.299-.0685.6063-.1031.9216-.1031.5578,0,1.061.0991,1.5098.2971.4487.1982.8306.4831,1.1459.8549.3153.3719.5558.8207.7215,1.346.1656.5256.2486,1.1198.2486,1.7826,0,.954-.1597,1.7745-.479,2.4616Z"/>
      <path class="st2" d="M100.3902,22.5064c-2.3783-1.6063-4.9096-3.0086-7.589-4.1921-6.7743-2.9895-14.4984-4.5054-22.9577-4.5054-4.7842,0-9.5161.5289-14.0647,1.5724-4.5078,1.0365-8.6995,2.6072-12.4577,4.6687-1.3735.7691-2.6972,1.6085-3.9816,2.502,3.0562,2.3103,11.6199,7.0318,30.5563,7.0318,16.0338,0,26.8251-4.8763,30.4943-7.0774Z"/>
      <path class="st0" d="M73.6657,68.8431c-.6237-.8703-1.188-1.8028-1.6751-2.8128-.9905-2.0521-1.6693-4.3463-2.0409-6.8494,0,0-.028-.2414-.1484-.2414-.1118,0-.149.3023-.149.3023l-.0007-.0048c-.3735,2.4804-1.0483,4.7559-2.031,6.7927-.4911,1.0177-1.0605,1.9567-1.69,2.8325l3.8405,4.0175,3.8946-4.0367Z"/>
      <path class="st0" d="M80.5977,88.475s.9333,12.7167-1.9948,26.049c-1.4367,6.5416-3.615,11.9713-6.409,16.2537-.0391.0824-.0745.1884-.0249.2478.0585.0702.2239.1031.4197-.0644,1.0371-.8564,2.0261-1.7858,2.9601-2.7967,13.3311-14.4316,12.2352-39.7705,12.2226-40.0253l4.3973-.222c.0512,1.0041,1.0366,22.4683-9.5175,38.2776.0042,0-.1881.2731-.0881.3541.074.0598.2029-.0538.3265-.1379,1.5634-1.2847,3.0038-2.6197,4.4035-4.1205,5.5474-5.9477,17.5107-22.526,17.6622-54.6069-.017-.084-.0721-.1714-.1941-.1674-.1409.0047-.2623.1949-.2623.1949l-.0006-.0006c-.4454.714-.9319,1.4031-1.4645,2.0634-1.7619,2.2068-3.9015,3.8478-6.3454,4.8593-2.2832.9454-5.0441,1.4248-8.2056,1.4248-1.7925,0-3.3301-.1527-4.7001-.4671-1.3835-.3168-2.7787-.8328-4.1476-1.5334l-.0634-.033c-1.0475-.5578-2.0089-1.2173-2.9005-1.955l-6.9151,7.1665-6.8357-7.1509c-.8863.7313-1.8413,1.3854-2.8812,1.9391l-.0629.0328c-1.3681.7003-2.7634,1.2163-4.1474,1.5336-1.37.3142-2.9077.4668-4.7004.4668-3.1611,0-5.9221-.4794-8.206-1.4251-2.443-1.0113-4.5827-2.6519-6.3585-4.8764-.5308-.6579-1.0023-1.3534-1.4463-2.0661,0,0-.0923-.1201-.1697-.1162-.0362.0018-.1379.0602-.1121.2236.7353,2.701,2.3253,6.1606,5.6918,9.5309,7.3886,7.3967,20.1674,11.1471,37.9815,11.1471h2.0886Z"/>
      <path class="st4" d="M44.5529,146.1765c7.0761,3.0415,15.9075,4.5841,26.2488,4.5841,5.7628,0,10.7997-.503,14.9706-1.4958,4.1866-.997,8.4547-2.6422,12.7181-4.9076,10.0751-5.5693,17.8313-14.0898,23.0539-25.325,5.1564-11.0949,7.7712-24.4892,7.7712-39.8106,0-10.6389-1.3555-20.3348-4.0289-28.8193-2.6954-8.5428-6.6711-15.952-11.8162-22.0228-5.1737-6.1-11.5295-10.8418-18.8913-14.0934-7.3383-3.2383-15.6607-4.8803-24.7359-4.8803-5.1151,0-10.178.5665-15.0501,1.6839-4.9038,1.1277-9.4761,2.8435-13.6065,5.1092-9.9343,5.5627-17.7149,14.0717-23.1262,25.2897-5.3561,11.1008-8.0717,24.1825-8.0717,38.8815,0,20.2064,5.311,37.2871,15.779,50.7603,5.3136,6.9102,11.634,11.9726,18.785,15.0459ZM40.5276,77.3279c-3.3665-3.3703-4.9566-6.8299-5.6918-9.5309-.0258-.1634.0759-.2218.1121-.2236.0773-.0038.1697.1162.1697.1162.444.7127.9156,1.4081,1.4463,2.0661,1.7758,2.2246,3.9154,3.8652,6.3585,4.8764,2.284.9457,5.045,1.4251,8.206,1.4251,1.7928,0,3.3305-.1526,4.7004-.4668,1.384-.3174,2.7793-.8334,4.1474-1.5336l.0629-.0328c1.0399-.5537,1.9949-1.2079,2.8812-1.9391l6.8357,7.1509,6.9151-7.1665c.8916.7377,1.8529,1.3972,2.9005,1.955l.0634.033c1.3689.7006,2.7642,1.2166,4.1476,1.5334,1.37.3144,2.9077.4671,4.7001.4671,3.1615,0,5.9224-.4794,8.2056-1.4248,2.4438-1.0115,4.5835-2.6524,6.3454-4.8593.5327-.6603,1.0192-1.3493,1.4645-2.0634l.0006.0006s.1213-.1902.2623-.1949c.122-.0041.1771.0834.1941.1674-.1515,32.0809-12.1148,48.6592-17.6622,54.6069-1.3997,1.5008-2.8401,2.8358-4.4035,4.1205-.1236.0841-.2525.1977-.3265.1379-.1-.0809.0923-.3541.0881-.3541,10.5541-15.8093,9.5687-37.2735,9.5175-38.2776l-4.3973.222c.0126.2548,1.1085,25.5937-12.2226,40.0253-.9339,1.0109-1.9229,1.9403-2.9601,2.7967-.1958.1675-.3612.1346-.4197.0644-.0495-.0594-.0141-.1654.0249-.2478,2.794-4.2824,4.9723-9.712,6.409-16.2537,2.9281-13.3323,1.9948-26.049,1.9948-26.049h-2.0886c-17.8141,0-30.5929-3.7505-37.9815-11.1471ZM65.9306,68.8623c.6295-.8758,1.1989-1.8148,1.69-2.8325.9827-2.0368,1.6575-4.3123,2.031-6.7927l.0007.0048s.0372-.3023.149-.3023c.1204,0,.1481.2406.1481.2406.3719,2.5038,1.0507,4.7981,2.0412,6.8502.4871,1.0099,1.0514,1.9425,1.6751,2.8128l-3.8946,4.0367-3.8405-4.0175ZM105.1097,37.0687c1.7688-.7242,3.5365-1.8831,5.2537-3.4444l.9654-.878c4.1752,5.3315,7.4613,11.6986,9.7587,18.9802,2.5384,8.055,3.8251,17.3059,3.8251,27.4952,0,14.6759-2.4766,27.4456-7.3606,37.9547-4.8211,10.371-11.9506,18.2191-21.1596,23.31-3.901,2.0725-7.8172,3.5849-11.6397,4.4948-3.8372.9132-8.5309,1.3765-13.9511,1.3765-8.1775,0-15.297-1.0067-21.2323-2.9887-.4811-.1977-.5901-.4203-.5675-.6246.042-.3776.722-.3977.722-.3977l-.001-.0002c1.5594-.0734,3.8385-.232,7.2979-.5815,13.7165-1.7962,24.9517-7.3144,33.4918-16.4713,9.1399-9.8002,15.0448-23.5142,17.551-40.7616,1.2873-8.8577,1.6075-18.1073.953-27.4915l-.0333-.4958c-.2429-4.0949-.7482-12.6162-4.554-18.7245-.0865-.1389-.173-.275-.2591-.4082.3203-.104.6337-.2185.9395-.3434ZM103.5446,54.7772c0,4.8995-1.312,8.9768-3.9376,12.2318-1.3121,1.6436-2.8465,2.8289-4.6023,3.5556-1.7551.7267-3.9294,1.0904-6.522,1.0904-1.4435,0-2.6825-.1185-3.7162-.3556-1.0337-.237-2.075-.6238-3.1256-1.1615-2.4935-1.3275-4.3885-3.3342-5.685-6.021-1.2961-2.6861-1.9443-5.8943-1.9443-9.624,0-2.5913.3368-4.9145,1.009-6.9693.673-2.0541,1.6489-3.8082,2.9286-5.2624,1.2798-1.4534,2.8303-2.5676,4.6516-3.3424,1.8212-.7741,3.8638-1.1615,6.1282-1.1615,1.2797,0,2.5272.1348,3.7408.4029,1.2143.269,2.3304.6719,3.347,1.2091,2.4611,1.3274,4.3646,3.3349,5.7098,6.0209,1.3458,2.6868,2.0181,5.8158,2.0181,9.387ZM43.3211,20.05c3.7582-2.0615,7.9499-3.6322,12.4577-4.6687,4.5486-1.0435,9.2804-1.5724,14.0647-1.5724,8.4593,0,16.1835,1.5159,22.9577,4.5054,2.6794,1.1835,5.2108,2.5858,7.589,4.1921-3.6692,2.2012-14.4605,7.0774-30.4943,7.0774-18.9365,0-27.5001-4.7215-30.5563-7.0318,1.2844-.8935,2.6081-1.7329,3.9816-2.502ZM38.0848,45.3902c1.3451-2.686,3.2486-4.6935,5.7098-6.0209,1.0166-.5371,2.1326-.9401,3.347-1.2091,1.2136-.2681,2.4612-.4029,3.7408-.4029,2.2643,0,4.3069.3874,6.1282,1.1615,1.8212.7748,3.3716,1.889,4.6515,3.3424,1.2797,1.4542,2.2557,3.2083,2.9287,5.2624.6722,2.0549,1.009,4.378,1.009,6.9693,0,3.7297-.6483,6.938-1.9443,9.624-1.2966,2.6868-3.1917,4.6935-5.6851,6.021-1.0505.5376-2.0919.9244-3.1256,1.1615-1.0336.237-2.2727.3556-3.7161.3556-2.5927,0-4.767-.3637-6.522-1.0904-1.7558-.7267-3.2902-1.912-4.6023-3.5556-2.6257-3.255-3.9376-7.3323-3.9376-12.2318,0-3.5712.6722-6.7002,2.0181-9.387ZM22.0263,43.4019c1.8557-3.8474,4.0094-7.3458,6.4465-10.488l.7814.7104c1.7169,1.5614,3.4844,2.7202,5.254,3.4444.3311.1354.6714.2585,1.0199.3695-.1446.2419-.2835.4867-.4165.735-3.5873,6.7613-5.4062,16.5137-5.4062,28.9859,0,7.9463,1.1228,20.9909,2.1136,32.4996.9339,10.8504,1.6581,19.1334,1.4786,24.5951-.0407,1.2397.1333,2.8629-1.8156,3.6537-2.0383.8269-3.7817-1.5648-3.7817-1.5648-8.8287-12.3591-13.3084-27.807-13.3084-45.9724,0-14.0311,2.5685-26.4689,7.6345-36.9684Z"/>
      <path class="st4" d="M49.3344,58.8311c.4323.1858.968.2789,1.6067.2789.3556,0,.6609-.0304.9155-.091.2547-.0606.5113-.1595.77-.297.6143-.3396,1.0812-.8529,1.4006-1.54.3192-.6871.4789-1.5076.4789-2.4616,0-.6628-.083-1.257-.2485-1.7826-.1658-.5253-.4063-.974-.7215-1.346-.3153-.3717-.6972-.6567-1.146-.8549-.4486-.198-.9518-.2971-1.5097-.2971-.3152,0-.6226.0345-.9216.1031-.2992.0688-.5741.1718-.8246.3092-.6063.3395-1.0753.853-1.4066,1.54-.3316.6872-.4972,1.4875-.4972,2.401,0,1.2532.3232,2.296.97,3.1285.3233.4204.7013.7236,1.1338.9095Z"/>
      <path class="st4" d="M91.4113,51.5918c-.3152-.3717-.6972-.6567-1.1459-.8549-.4487-.198-.9519-.2971-1.5098-.2971-.3152,0-.6225.0345-.9216.1031-.2992.0688-.5741.1718-.8246.3092-.6062.3395-1.0752.853-1.4066,1.54-.3315.6872-.4972,1.4875-.4972,2.401,0,1.2532.3233,2.296.9701,3.1285.3232.4204.7012.7236,1.1338.9095.4323.1858.968.2789,1.6067.2789.3556,0,.6608-.0304.9155-.091.2547-.0606.5112-.1595.77-.297.6142-.3396,1.0811-.8529,1.4005-1.54.3193-.6871.479-1.5076.479-2.4616,0-.6628-.083-1.257-.2486-1.7826-.1658-.5253-.4062-.974-.7215-1.346Z"/>
    </g>
  </g>
</svg>